<?xml version="1.0" encoding="UTF-8" standalone="no"?>
<!-- Created with Inkscape (http://www.inkscape.org/) -->

<svg
   xmlns:dc="http://purl.org/dc/elements/1.1/"
   xmlns:cc="http://creativecommons.org/ns#"
   xmlns:rdf="http://www.w3.org/1999/02/22-rdf-syntax-ns#"
   xmlns:svg="http://www.w3.org/2000/svg"
   xmlns="http://www.w3.org/2000/svg"
   xmlns:sodipodi="http://sodipodi.sourceforge.net/DTD/sodipodi-0.dtd"
   xmlns:inkscape="http://www.inkscape.org/namespaces/inkscape"
   width="203.98247"
   height="260.67145"
   id="svg2"
   version="1.1"
   inkscape:version="0.48+devel r10687"
   sodipodi:docname="Java Computation of Arithmetic Expression.svg">
  <defs
     id="defs4" />
  <sodipodi:namedview
     id="base"
     pagecolor="#ffffff"
     bordercolor="#666666"
     borderopacity="1.0"
     inkscape:pageopacity="0.0"
     inkscape:pageshadow="2"
     inkscape:zoom="1"
     inkscape:cx="156.42602"
     inkscape:cy="149.05206"
     inkscape:document-units="px"
     inkscape:current-layer="layer1"
     showgrid="false"
     inkscape:window-width="1440"
     inkscape:window-height="838"
     inkscape:window-x="-8"
     inkscape:window-y="-8"
     inkscape:window-maximized="1"
     fit-margin-top="1"
     fit-margin-left="1"
     fit-margin-right="1"
     fit-margin-bottom="1" />
  <metadata
     id="metadata7">
    <rdf:RDF>
      <cc:Work
         rdf:about="">
        <dc:format>image/svg+xml</dc:format>
        <dc:type
           rdf:resource="http://purl.org/dc/dcmitype/StillImage" />
        <dc:title></dc:title>
      </cc:Work>
    </rdf:RDF>
  </metadata>
  <g
     inkscape:label="Layer 1"
     inkscape:groupmode="layer"
     id="layer1"
     transform="translate(-6.0739763,-5.7427957)">
    <g
       id="g4240"
       transform="translate(-227.28813,-88.717211)">
      <path
         transform="matrix(0.72525461,0,0,0.72525461,106.35188,-73.442185)"
         d="m 226.79179,300.96518 c 0,9.55883 -8.01617,17.30779 -17.90461,17.30779 -9.88845,0 -17.90462,-7.74896 -17.90462,-17.30779 0,-9.55883 8.01617,-17.3078 17.90462,-17.3078 9.88844,0 17.90461,7.74897 17.90461,17.3078 z"
         sodipodi:ry="17.307795"
         sodipodi:rx="17.904615"
         sodipodi:cy="300.96518"
         sodipodi:cx="208.88718"
         id="path4238-2-21"
         style="fill:#c4e2ff;fill-opacity:1"
         sodipodi:type="arc" />
      <path
         transform="matrix(0.72525461,0,0,0.72525461,163.14378,-32.9698)"
         d="m 226.79179,300.96518 c 0,9.55883 -8.01617,17.30779 -17.90461,17.30779 -9.88845,0 -17.90462,-7.74896 -17.90462,-17.30779 0,-9.55883 8.01617,-17.3078 17.90462,-17.3078 9.88844,0 17.90461,7.74897 17.90461,17.3078 z"
         sodipodi:ry="17.307795"
         sodipodi:rx="17.904615"
         sodipodi:cy="300.96518"
         sodipodi:cx="208.88718"
         id="path4238-2-2"
         style="fill:#c4e2ff;fill-opacity:1"
         sodipodi:type="arc" />
      <path
         transform="matrix(0.72525461,0,0,0.72525461,234.46004,7.9921723)"
         d="m 226.79179,300.96518 c 0,9.55883 -8.01617,17.30779 -17.90461,17.30779 -9.88845,0 -17.90462,-7.74896 -17.90462,-17.30779 0,-9.55883 8.01617,-17.3078 17.90462,-17.3078 9.88844,0 17.90461,7.74897 17.90461,17.3078 z"
         sodipodi:ry="17.307795"
         sodipodi:rx="17.904615"
         sodipodi:cy="300.96518"
         sodipodi:cx="208.88718"
         id="path4238-2-3"
         style="fill:#c4e2ff;fill-opacity:1"
         sodipodi:type="arc" />
      <path
         transform="matrix(0.72525461,0,0,0.72525461,171.79312,92.03765)"
         d="m 226.79179,300.96518 c 0,9.55883 -8.01617,17.30779 -17.90461,17.30779 -9.88845,0 -17.90462,-7.74896 -17.90462,-17.30779 0,-9.55883 8.01617,-17.3078 17.90462,-17.3078 9.88844,0 17.90461,7.74897 17.90461,17.3078 z"
         sodipodi:ry="17.307795"
         sodipodi:rx="17.904615"
         sodipodi:cy="300.96518"
         sodipodi:cx="208.88718"
         id="path4238-2"
         style="fill:#c4e2ff;fill-opacity:1"
         sodipodi:type="arc" />
      <path
         transform="matrix(0.72525461,0,0,0.72525461,185.75089,123.30251)"
         d="m 226.79179,300.96518 c 0,9.55883 -8.01617,17.30779 -17.90461,17.30779 -9.88845,0 -17.90462,-7.74896 -17.90462,-17.30779 0,-9.55883 8.01617,-17.3078 17.90462,-17.3078 9.88844,0 17.90461,7.74897 17.90461,17.3078 z"
         sodipodi:ry="17.307795"
         sodipodi:rx="17.904615"
         sodipodi:cy="300.96518"
         sodipodi:cx="208.88718"
         id="path4238"
         style="fill:#2a7fff;fill-opacity:1"
         sodipodi:type="arc" />
      <rect
         ry="1.6464095"
         rx="2.0156937"
         y="258.09763"
         x="299.45801"
         height="21.289904"
         width="48.120293"
         id="rect4036-5-1"
         style="fill:#2a7fff;fill-opacity:1" />
      <rect
         ry="1.6307693"
         rx="2.5"
         y="215.55626"
         x="281.30139"
         height="21.087658"
         width="59.682049"
         id="rect4036-5-7"
         style="fill:#2a7fff;fill-opacity:1" />
      <path
         sodipodi:nodetypes="cccc"
         inkscape:connector-curvature="0"
         id="rect4040-2-6"
         d="m 306.35728,235.05242 10.74277,0 -5.17245,15.66947 z"
         style="fill:#2a7fff;fill-opacity:1" />
      <rect
         ry="1.6"
         rx="2.0833333"
         y="173.96562"
         x="359.84021"
         height="20.689777"
         width="49.735043"
         id="rect4036-5"
         style="fill:#2a7fff;fill-opacity:1" />
      <path
         sodipodi:nodetypes="cccc"
         inkscape:connector-curvature="0"
         id="rect4040-2"
         d="m 380.12154,193.46178 10.74277,0 -5.17245,14.49156 z"
         style="fill:#2a7fff;fill-opacity:1" />
      <rect
         ry="1.6615385"
         rx="2.5892556"
         y="133.44502"
         x="283.35471"
         height="21.485537"
         width="61.812836"
         id="rect4036-1"
         style="fill:#2a7fff;fill-opacity:1" />
      <path
         sodipodi:nodetypes="cccc"
         inkscape:connector-curvature="0"
         id="rect4040-1"
         d="m 308.39885,154.13482 10.74277,0 -5.17245,13.49045 z"
         style="fill:#2a7fff;fill-opacity:1" />
      <rect
         ry="1.6"
         rx="2"
         y="95.460007"
         x="234.36211"
         height="20.689777"
         width="47.74564"
         id="rect4036"
         style="fill:#2a7fff;fill-opacity:1" />
      <g
         id="text3103"
         style="font-size:40px;font-style:normal;font-weight:normal;text-align:center;line-height:125%;letter-spacing:0px;word-spacing:0px;text-anchor:middle;fill:#2a7fff;fill-opacity:1;stroke:none;font-family:Sans">
        <path
           id="path4002"
           style="font-size:16px;font-variant:normal;font-stretch:normal;fill:#ffffff;fill-opacity:1;font-family:Sans;-inkscape-font-specification:Sans"
           d="m 243.03207,112.04369 -1.40625,0 0,-8.96093 q -0.50781,0.48437 -1.33203,0.96875 -0.82422,0.48437 -1.48047,0.72656 l 0,-1.35938 q 1.17969,-0.55468 2.0625,-1.34375 0.88282,-0.78906 1.25,-1.53125 l 0.90625,0 z"
           inkscape:connector-curvature="0" />
        <path
           id="path4004"
           style="font-size:16px;font-variant:normal;font-stretch:normal;fill:#ffffff;fill-opacity:1;font-family:Sans;-inkscape-font-specification:Sans"
           d="m 246.64145,106.39526 q 0,-2.03125 0.41797,-3.26954 0.41797,-1.23828 1.24219,-1.91015 0.82421,-0.67188 2.07421,-0.67188 0.92188,0 1.61719,0.3711 0.69531,0.37109 1.14844,1.07031 0.45312,0.69922 0.71094,1.70312 0.25781,1.00391 0.25781,2.70704 0,2.01562 -0.41406,3.2539 -0.41407,1.23828 -1.23828,1.91406 -0.82422,0.67579 -2.08204,0.67579 -1.65625,0 -2.60156,-1.1875 -1.13281,-1.42969 -1.13281,-4.65625 z m 1.44531,0 q 0,2.82031 0.66016,3.7539 0.66015,0.9336 1.6289,0.9336 0.96875,0 1.62891,-0.9375 0.66016,-0.9375 0.66016,-3.75 0,-2.82813 -0.66016,-3.75782 -0.66016,-0.92968 -1.64453,-0.92968 -0.96875,0 -1.54688,0.82031 -0.72656,1.04687 -0.72656,3.86719 z"
           inkscape:connector-curvature="0" />
        <path
           inkscape:connector-curvature="0"
           id="path4006"
           style="font-size:16px;font-variant:normal;font-stretch:normal;fill:#ffffff;fill-opacity:1;font-family:Sans;-inkscape-font-specification:Sans"
           d="m 259.82114,106.69213 0.35937,-1.10937 q 1.24219,0.4375 1.80469,0.75781 -0.14844,-1.41406 -0.15625,-1.94531 l 1.13281,0 q -0.0234,0.77343 -0.17969,1.9375 0.80469,-0.40625 1.84375,-0.75 l 0.35938,1.10937 q -0.99219,0.32813 -1.94531,0.4375 0.47656,0.41406 1.34375,1.47656 l -0.9375,0.66407 q -0.45313,-0.61719 -1.07032,-1.67969 -0.57812,1.10156 -1.01562,1.67969 l -0.92188,-0.66407 q 0.90625,-1.11718 1.29688,-1.47656 -1.00781,-0.19531 -1.91406,-0.4375 z" />
        <path
           id="path4008"
           style="font-size:16px;font-variant:normal;font-stretch:normal;fill:#ffffff;fill-opacity:1;font-family:Sans;-inkscape-font-specification:Sans"
           d="m 270.64145,109.04369 1.47656,-0.125 q 0.16406,1.07813 0.76172,1.6211 0.59766,0.54297 1.44141,0.54297 1.01562,0 1.71875,-0.76563 0.70312,-0.76562 0.70312,-2.03125 0,-1.20312 -0.67578,-1.89844 -0.67578,-0.69531 -1.76953,-0.69531 -0.67969,0 -1.22656,0.30859 -0.54688,0.3086 -0.85938,0.80079 l -1.32031,-0.17188 1.10937,-5.88281 5.69532,0 0,1.34375 -4.57032,0 -0.61718,3.07812 q 1.03125,-0.71875 2.16406,-0.71875 1.5,0 2.53125,1.03907 1.03125,1.03906 1.03125,2.67187 0,1.55469 -0.90625,2.6875 -1.10156,1.39063 -3.00781,1.39063 -1.5625,0 -2.55078,-0.875 -0.98829,-0.875 -1.12891,-2.32032 z"
           inkscape:connector-curvature="0" />
        <path
           id="path4010"
           style="font-size:16px;font-variant:normal;font-stretch:normal;fill:#2a7fff;font-family:Sans;-inkscape-font-specification:Sans"
           d="m 287.32895,110.19213 0,-3.14062 -3.11719,0 0,-1.3125 3.11719,0 0,-3.11719 1.32812,0 0,3.11719 3.11719,0 0,1.3125 -3.11719,0 0,3.14062 z"
           inkscape:connector-curvature="0" />
        <path
           id="path4012"
           style="font-size:16px;font-variant:normal;font-stretch:normal;fill:#2a7fff;font-family:Sans;-inkscape-font-specification:Sans"
           d="m 303.06332,112.04369 -1.40625,0 0,-8.96093 q -0.50781,0.48437 -1.33203,0.96875 -0.82422,0.48437 -1.48047,0.72656 l 0,-1.35938 q 1.17969,-0.55468 2.0625,-1.34375 0.88282,-0.78906 1.25,-1.53125 l 0.90625,0 z"
           inkscape:connector-curvature="0" />
        <path
           id="path4014"
           style="font-size:16px;font-variant:normal;font-stretch:normal;fill:#2a7fff;font-family:Sans;-inkscape-font-specification:Sans"
           d="m 306.6727,106.39526 q 0,-2.03125 0.41797,-3.26954 0.41797,-1.23828 1.24219,-1.91015 0.82421,-0.67188 2.07421,-0.67188 0.92188,0 1.61719,0.3711 0.69531,0.37109 1.14844,1.07031 0.45312,0.69922 0.71094,1.70312 0.25781,1.00391 0.25781,2.70704 0,2.01562 -0.41406,3.2539 -0.41407,1.23828 -1.23828,1.91406 -0.82422,0.67579 -2.08204,0.67579 -1.65625,0 -2.60156,-1.1875 -1.13281,-1.42969 -1.13281,-4.65625 z m 1.44531,0 q 0,2.82031 0.66016,3.7539 0.66015,0.9336 1.6289,0.9336 0.96875,0 1.62891,-0.9375 0.66016,-0.9375 0.66016,-3.75 0,-2.82813 -0.66016,-3.75782 -0.66016,-0.92968 -1.64453,-0.92968 -0.96875,0 -1.54688,0.82031 -0.72656,1.04687 -0.72656,3.86719 z"
           inkscape:connector-curvature="0" />
        <path
           id="path4016"
           style="font-size:16px;font-variant:normal;font-stretch:normal;fill:#2a7fff;font-family:Sans;-inkscape-font-specification:Sans"
           d="m 315.57895,106.39526 q 0,-2.03125 0.41797,-3.26954 0.41797,-1.23828 1.24219,-1.91015 0.82421,-0.67188 2.07421,-0.67188 0.92188,0 1.61719,0.3711 0.69531,0.37109 1.14844,1.07031 0.45312,0.69922 0.71094,1.70312 0.25781,1.00391 0.25781,2.70704 0,2.01562 -0.41406,3.2539 -0.41407,1.23828 -1.23828,1.91406 -0.82422,0.67579 -2.08204,0.67579 -1.65625,0 -2.60156,-1.1875 -1.13281,-1.42969 -1.13281,-4.65625 z m 1.44531,0 q 0,2.82031 0.66016,3.7539 0.66015,0.9336 1.6289,0.9336 0.96875,0 1.62891,-0.9375 0.66016,-0.9375 0.66016,-3.75 0,-2.82813 -0.66016,-3.75782 -0.66016,-0.92968 -1.64453,-0.92968 -0.96875,0 -1.54688,0.82031 -0.72656,1.04687 -0.72656,3.86719 z"
           inkscape:connector-curvature="0" />
        <path
           id="path4018"
           style="font-size:16px;font-variant:normal;font-stretch:normal;fill:#2a7fff;font-family:Sans;-inkscape-font-specification:Sans"
           d="m 328.25864,112.23901 3.32031,-11.84375 1.125,0 -3.3125,11.84375 z"
           inkscape:connector-curvature="0" />
        <path
           id="path4020"
           style="font-size:16px;font-variant:normal;font-stretch:normal;fill:#2a7fff;font-family:Sans;-inkscape-font-specification:Sans"
           d="m 343.09457,112.04369 -1.40625,0 0,-8.96093 q -0.50781,0.48437 -1.33203,0.96875 -0.82422,0.48437 -1.48047,0.72656 l 0,-1.35938 q 1.17969,-0.55468 2.0625,-1.34375 0.88282,-0.78906 1.25,-1.53125 l 0.90625,0 z"
           inkscape:connector-curvature="0" />
        <path
           id="path4022"
           style="font-size:16px;font-variant:normal;font-stretch:normal;fill:#2a7fff;font-family:Sans;-inkscape-font-specification:Sans"
           d="m 346.70395,106.39526 q 0,-2.03125 0.41797,-3.26954 0.41797,-1.23828 1.24219,-1.91015 0.82421,-0.67188 2.07421,-0.67188 0.92188,0 1.61719,0.3711 0.69531,0.37109 1.14844,1.07031 0.45312,0.69922 0.71094,1.70312 0.25781,1.00391 0.25781,2.70704 0,2.01562 -0.41406,3.2539 -0.41407,1.23828 -1.23828,1.91406 -0.82422,0.67579 -2.08204,0.67579 -1.65625,0 -2.60156,-1.1875 -1.13281,-1.42969 -1.13281,-4.65625 z m 1.44531,0 q 0,2.82031 0.66016,3.7539 0.66015,0.9336 1.6289,0.9336 0.96875,0 1.62891,-0.9375 0.66016,-0.9375 0.66016,-3.75 0,-2.82813 -0.66016,-3.75782 -0.66016,-0.92968 -1.64453,-0.92968 -0.96875,0 -1.54688,0.82031 -0.72656,1.04687 -0.72656,3.86719 z"
           inkscape:connector-curvature="0" />
        <path
           id="path4024"
           style="font-size:16px;font-variant:normal;font-stretch:normal;fill:#2a7fff;font-family:Sans;-inkscape-font-specification:Sans"
           d="m 359.89145,108.60619 0,-1.41406 4.32031,0 0,1.41406 z"
           inkscape:connector-curvature="0" />
        <path
           id="path4026"
           style="font-size:16px;font-variant:normal;font-stretch:normal;fill:#2a7fff;font-family:Sans;-inkscape-font-specification:Sans"
           d="m 369.82895,109.04369 1.47656,-0.125 q 0.16406,1.07813 0.76172,1.6211 0.59766,0.54297 1.44141,0.54297 1.01562,0 1.71875,-0.76563 0.70312,-0.76562 0.70312,-2.03125 0,-1.20312 -0.67578,-1.89844 -0.67578,-0.69531 -1.76953,-0.69531 -0.67969,0 -1.22656,0.30859 -0.54688,0.3086 -0.85938,0.80079 l -1.32031,-0.17188 1.10937,-5.88281 5.69532,0 0,1.34375 -4.57032,0 -0.61718,3.07812 q 1.03125,-0.71875 2.16406,-0.71875 1.5,0 2.53125,1.03907 1.03125,1.03906 1.03125,2.67187 0,1.55469 -0.90625,2.6875 -1.10156,1.39063 -3.00781,1.39063 -1.5625,0 -2.55078,-0.875 -0.98829,-0.875 -1.12891,-2.32032 z"
           inkscape:connector-curvature="0" />
        <path
           id="path4028"
           style="font-size:16px;font-variant:normal;font-stretch:normal;fill:#2a7fff;font-family:Sans;-inkscape-font-specification:Sans"
           d="m 386.51645,110.19213 0,-3.14062 -3.11719,0 0,-1.3125 3.11719,0 0,-3.11719 1.32812,0 0,3.11719 3.11719,0 0,1.3125 -3.11719,0 0,3.14062 z"
           inkscape:connector-curvature="0" />
        <path
           id="path4030"
           style="font-size:16px;font-variant:normal;font-stretch:normal;fill:#2a7fff;font-family:Sans;-inkscape-font-specification:Sans"
           d="m 397.0477,102.09057 0,-1.35156 7.41406,0 0,1.09375 q -1.09375,1.16406 -2.16797,3.09375 -1.07422,1.92968 -1.66015,3.96875 -0.42188,1.4375 -0.53907,3.14843 l -1.44531,0 q 0.0234,-1.35156 0.53125,-3.26562 0.50781,-1.91406 1.45703,-3.69141 0.94922,-1.77734 2.01953,-2.99609 z"
           inkscape:connector-curvature="0" />
        <path
           id="path4032"
           style="font-size:16px;font-variant:normal;font-stretch:normal;fill:#2a7fff;font-family:Sans;-inkscape-font-specification:Sans"
           d="m 410.56332,103.34057 q 0,-1.22656 0.61719,-2.08594 0.61719,-0.85937 1.78906,-0.85937 1.07813,0 1.78516,0.76953 0.70703,0.76953 0.70703,2.26172 0,1.45312 -0.71484,2.23828 -0.71485,0.78515 -1.76172,0.78515 -1.03906,0 -1.73047,-0.77343 -0.69141,-0.77344 -0.69141,-2.33594 z m 2.44532,-1.97656 q -0.52344,0 -0.8711,0.45312 -0.34765,0.45313 -0.34765,1.66406 0,1.10157 0.35156,1.55078 0.35156,0.44922 0.86719,0.44922 0.53125,0 0.8789,-0.45312 0.34766,-0.45313 0.34766,-1.65625 0,-1.10938 -0.35156,-1.5586 -0.35157,-0.44921 -0.875,-0.44921 z m 0.008,11.10156 6.26562,-12.07031 1.14063,0 -6.24219,12.07031 z m 4.95312,-3.10938 q 0,-1.23437 0.61719,-2.08984 0.61719,-0.85547 1.79688,-0.85547 1.07812,0 1.78515,0.76953 0.70703,0.76953 0.70703,2.26172 0,1.45313 -0.71484,2.23828 -0.71484,0.78516 -1.76953,0.78516 -1.03906,0 -1.73047,-0.77735 -0.69141,-0.77734 -0.69141,-2.33203 z m 2.45313,-1.97656 q -0.53125,0 -0.87891,0.45313 -0.34765,0.45312 -0.34765,1.66406 0,1.09375 0.35156,1.54687 0.35156,0.45313 0.86719,0.45313 0.53906,0 0.88672,-0.45313 0.34765,-0.45312 0.34765,-1.65625 0,-1.10937 -0.35156,-1.55859 -0.35156,-0.44922 -0.875,-0.44922 z"
           inkscape:connector-curvature="0" />
        <path
           id="path4034"
           style="font-size:16px;font-variant:normal;font-stretch:normal;fill:#2a7fff;font-family:Sans;-inkscape-font-specification:Sans"
           d="m 436.34457,110.69213 0,1.35156 -7.57031,0 q -0.0156,-0.50781 0.16406,-0.97656 0.28907,-0.77344 0.92579,-1.52344 0.63671,-0.75 1.83984,-1.73437 1.86719,-1.53125 2.52344,-2.42578 0.65625,-0.89453 0.65625,-1.69141 0,-0.83594 -0.59766,-1.41016 -0.59766,-0.57421 -1.55859,-0.57421 -1.01563,0 -1.625,0.60937 -0.60938,0.60938 -0.61719,1.6875 l -1.44531,-0.14844 q 0.14843,-1.61718 1.11718,-2.46484 0.96875,-0.84766 2.60157,-0.84766 1.64843,0 2.60937,0.91407 0.96094,0.91406 0.96094,2.26562 0,0.6875 -0.28125,1.35156 -0.28125,0.66407 -0.93359,1.39844 -0.65235,0.73438 -2.16797,2.01563 -1.26563,1.0625 -1.625,1.4414 -0.35938,0.37891 -0.59375,0.76172 z"
           inkscape:connector-curvature="0" />
      </g>
      <g
         transform="translate(0,-4)"
         id="text3103-1"
         style="font-size:40px;font-style:normal;font-weight:normal;text-align:center;line-height:125%;letter-spacing:0px;word-spacing:0px;text-anchor:middle;fill:#2a7fff;fill-opacity:1;stroke:none;font-family:Sans">
        <path
           inkscape:connector-curvature="0"
           id="path4046"
           style="font-size:16px;font-variant:normal;font-stretch:normal;fill:#2a7fff;font-family:Sans;-inkscape-font-specification:Sans"
           d="m 249.7352,151.0437 1.47656,-0.125 q 0.16406,1.07813 0.76172,1.62109 0.59766,0.54297 1.44141,0.54297 1.01562,0 1.71875,-0.76562 0.70312,-0.76563 0.70312,-2.03125 0,-1.20313 -0.67578,-1.89844 -0.67578,-0.69531 -1.76953,-0.69531 -0.67969,0 -1.22656,0.30859 -0.54688,0.3086 -0.85938,0.80078 l -1.32031,-0.17187 1.10937,-5.88281 5.69532,0 0,1.34375 -4.57032,0 -0.61718,3.07812 q 1.03125,-0.71875 2.16406,-0.71875 1.5,0 2.53125,1.03906 1.03125,1.03907 1.03125,2.67188 0,1.55469 -0.90625,2.6875 -1.10156,1.39062 -3.00781,1.39062 -1.5625,0 -2.55078,-0.875 -0.98829,-0.875 -1.12891,-2.32031 z" />
        <path
           inkscape:connector-curvature="0"
           id="path4048"
           style="font-size:16px;font-variant:normal;font-stretch:normal;fill:#2a7fff;font-family:Sans;-inkscape-font-specification:Sans"
           d="m 258.64145,148.39526 q 0,-2.03125 0.41797,-3.26953 0.41797,-1.23828 1.24219,-1.91015 0.82421,-0.67188 2.07421,-0.67188 0.92188,0 1.61719,0.37109 0.69531,0.3711 1.14844,1.07032 0.45312,0.69922 0.71094,1.70312 0.25781,1.00391 0.25781,2.70703 0,2.01563 -0.41406,3.25391 -0.41407,1.23828 -1.23828,1.91406 -0.82422,0.67578 -2.08204,0.67578 -1.65625,0 -2.60156,-1.1875 -1.13281,-1.42968 -1.13281,-4.65625 z m 1.44531,0 q 0,2.82032 0.66016,3.75391 0.66015,0.93359 1.6289,0.93359 0.96875,0 1.62891,-0.9375 0.66016,-0.9375 0.66016,-3.75 0,-2.82812 -0.66016,-3.75781 -0.66016,-0.92969 -1.64453,-0.92969 -0.96875,0 -1.54688,0.82032 -0.72656,1.04687 -0.72656,3.86718 z" />
        <path
           inkscape:connector-curvature="0"
           id="path4050"
           style="font-size:16px;font-variant:normal;font-stretch:normal;fill:#2a7fff;font-family:Sans;-inkscape-font-specification:Sans"
           d="m 275.32895,152.19214 0,-3.14063 -3.11719,0 0,-1.3125 3.11719,0 0,-3.11718 1.32812,0 0,3.11718 3.11719,0 0,1.3125 -3.11719,0 0,3.14063 z" />
        <path
           inkscape:connector-curvature="0"
           id="path4052"
           style="font-size:16px;font-variant:normal;font-stretch:normal;fill:#ffffff;font-family:Sans;-inkscape-font-specification:Sans"
           d="m 291.06332,154.0437 -1.40625,0 0,-8.96094 q -0.50781,0.48438 -1.33203,0.96875 -0.82422,0.48438 -1.48047,0.72657 l 0,-1.35938 q 1.17969,-0.55469 2.0625,-1.34375 0.88282,-0.78906 1.25,-1.53125 l 0.90625,0 z" />
        <path
           inkscape:connector-curvature="0"
           id="path4054"
           style="font-size:16px;font-variant:normal;font-stretch:normal;fill:#ffffff;font-family:Sans;-inkscape-font-specification:Sans"
           d="m 294.6727,148.39526 q 0,-2.03125 0.41797,-3.26953 0.41797,-1.23828 1.24219,-1.91015 0.82421,-0.67188 2.07421,-0.67188 0.92188,0 1.61719,0.37109 0.69531,0.3711 1.14844,1.07032 0.45312,0.69922 0.71094,1.70312 0.25781,1.00391 0.25781,2.70703 0,2.01563 -0.41406,3.25391 -0.41407,1.23828 -1.23828,1.91406 -0.82422,0.67578 -2.08204,0.67578 -1.65625,0 -2.60156,-1.1875 -1.13281,-1.42968 -1.13281,-4.65625 z m 1.44531,0 q 0,2.82032 0.66016,3.75391 0.66015,0.93359 1.6289,0.93359 0.96875,0 1.62891,-0.9375 0.66016,-0.9375 0.66016,-3.75 0,-2.82812 -0.66016,-3.75781 -0.66016,-0.92969 -1.64453,-0.92969 -0.96875,0 -1.54688,0.82032 -0.72656,1.04687 -0.72656,3.86718 z" />
        <path
           inkscape:connector-curvature="0"
           id="path4056"
           style="font-size:16px;font-variant:normal;font-stretch:normal;fill:#ffffff;font-family:Sans;-inkscape-font-specification:Sans"
           d="m 303.57895,148.39526 q 0,-2.03125 0.41797,-3.26953 0.41797,-1.23828 1.24219,-1.91015 0.82421,-0.67188 2.07421,-0.67188 0.92188,0 1.61719,0.37109 0.69531,0.3711 1.14844,1.07032 0.45312,0.69922 0.71094,1.70312 0.25781,1.00391 0.25781,2.70703 0,2.01563 -0.41406,3.25391 -0.41407,1.23828 -1.23828,1.91406 -0.82422,0.67578 -2.08204,0.67578 -1.65625,0 -2.60156,-1.1875 -1.13281,-1.42968 -1.13281,-4.65625 z m 1.44531,0 q 0,2.82032 0.66016,3.75391 0.66015,0.93359 1.6289,0.93359 0.96875,0 1.62891,-0.9375 0.66016,-0.9375 0.66016,-3.75 0,-2.82812 -0.66016,-3.75781 -0.66016,-0.92969 -1.64453,-0.92969 -0.96875,0 -1.54688,0.82032 -0.72656,1.04687 -0.72656,3.86718 z" />
        <path
           inkscape:connector-curvature="0"
           id="path4058"
           style="font-size:16px;font-variant:normal;font-stretch:normal;fill:#ffffff;font-family:Sans;-inkscape-font-specification:Sans"
           d="m 316.25864,154.23901 3.32031,-11.84375 1.125,0 -3.3125,11.84375 z" />
        <path
           inkscape:connector-curvature="0"
           id="path4060"
           style="font-size:16px;font-variant:normal;font-stretch:normal;fill:#ffffff;font-family:Sans;-inkscape-font-specification:Sans"
           d="m 331.09457,154.0437 -1.40625,0 0,-8.96094 q -0.50781,0.48438 -1.33203,0.96875 -0.82422,0.48438 -1.48047,0.72657 l 0,-1.35938 q 1.17969,-0.55469 2.0625,-1.34375 0.88282,-0.78906 1.25,-1.53125 l 0.90625,0 z" />
        <path
           inkscape:connector-curvature="0"
           id="path4062"
           style="font-size:16px;font-variant:normal;font-stretch:normal;fill:#ffffff;font-family:Sans;-inkscape-font-specification:Sans"
           d="m 334.70395,148.39526 q 0,-2.03125 0.41797,-3.26953 0.41797,-1.23828 1.24219,-1.91015 0.82421,-0.67188 2.07421,-0.67188 0.92188,0 1.61719,0.37109 0.69531,0.3711 1.14844,1.07032 0.45312,0.69922 0.71094,1.70312 0.25781,1.00391 0.25781,2.70703 0,2.01563 -0.41406,3.25391 -0.41407,1.23828 -1.23828,1.91406 -0.82422,0.67578 -2.08204,0.67578 -1.65625,0 -2.60156,-1.1875 -1.13281,-1.42968 -1.13281,-4.65625 z m 1.44531,0 q 0,2.82032 0.66016,3.75391 0.66015,0.93359 1.6289,0.93359 0.96875,0 1.62891,-0.9375 0.66016,-0.9375 0.66016,-3.75 0,-2.82812 -0.66016,-3.75781 -0.66016,-0.92969 -1.64453,-0.92969 -0.96875,0 -1.54688,0.82032 -0.72656,1.04687 -0.72656,3.86718 z" />
        <path
           inkscape:connector-curvature="0"
           id="path4064"
           style="font-size:16px;font-variant:normal;font-stretch:normal;fill:#2a7fff;font-family:Sans;-inkscape-font-specification:Sans"
           d="m 347.89145,150.6062 0,-1.41406 4.32031,0 0,1.41406 z" />
        <path
           inkscape:connector-curvature="0"
           id="path4066"
           style="font-size:16px;font-variant:normal;font-stretch:normal;fill:#2a7fff;font-family:Sans;-inkscape-font-specification:Sans"
           d="m 357.82895,151.0437 1.47656,-0.125 q 0.16406,1.07813 0.76172,1.62109 0.59766,0.54297 1.44141,0.54297 1.01562,0 1.71875,-0.76562 0.70312,-0.76563 0.70312,-2.03125 0,-1.20313 -0.67578,-1.89844 -0.67578,-0.69531 -1.76953,-0.69531 -0.67969,0 -1.22656,0.30859 -0.54688,0.3086 -0.85938,0.80078 l -1.32031,-0.17187 1.10937,-5.88281 5.69532,0 0,1.34375 -4.57032,0 -0.61718,3.07812 q 1.03125,-0.71875 2.16406,-0.71875 1.5,0 2.53125,1.03906 1.03125,1.03907 1.03125,2.67188 0,1.55469 -0.90625,2.6875 -1.10156,1.39062 -3.00781,1.39062 -1.5625,0 -2.55078,-0.875 -0.98829,-0.875 -1.12891,-2.32031 z" />
        <path
           inkscape:connector-curvature="0"
           id="path4068"
           style="font-size:16px;font-variant:normal;font-stretch:normal;fill:#2a7fff;font-family:Sans;-inkscape-font-specification:Sans"
           d="m 374.51645,152.19214 0,-3.14063 -3.11719,0 0,-1.3125 3.11719,0 0,-3.11718 1.32812,0 0,3.11718 3.11719,0 0,1.3125 -3.11719,0 0,3.14063 z" />
        <path
           inkscape:connector-curvature="0"
           id="path4070"
           style="font-size:16px;font-variant:normal;font-stretch:normal;fill:#2a7fff;font-family:Sans;-inkscape-font-specification:Sans"
           d="m 385.0477,144.09058 0,-1.35157 7.41406,0 0,1.09375 q -1.09375,1.16407 -2.16797,3.09375 -1.07422,1.92969 -1.66015,3.96875 -0.42188,1.4375 -0.53907,3.14844 l -1.44531,0 q 0.0234,-1.35156 0.53125,-3.26562 0.50781,-1.91407 1.45703,-3.69141 0.94922,-1.77734 2.01953,-2.99609 z" />
        <path
           inkscape:connector-curvature="0"
           id="path4072"
           style="font-size:16px;font-variant:normal;font-stretch:normal;fill:#2a7fff;font-family:Sans;-inkscape-font-specification:Sans"
           d="m 398.56332,145.34058 q 0,-1.22657 0.61719,-2.08594 0.61719,-0.85938 1.78906,-0.85938 1.07813,0 1.78516,0.76953 0.70703,0.76954 0.70703,2.26172 0,1.45313 -0.71484,2.23828 -0.71485,0.78516 -1.76172,0.78516 -1.03906,0 -1.73047,-0.77344 -0.69141,-0.77343 -0.69141,-2.33593 z m 2.44532,-1.97657 q -0.52344,0 -0.8711,0.45313 -0.34765,0.45312 -0.34765,1.66406 0,1.10156 0.35156,1.55078 0.35156,0.44922 0.86719,0.44922 0.53125,0 0.8789,-0.45312 0.34766,-0.45313 0.34766,-1.65625 0,-1.10938 -0.35156,-1.5586 -0.35157,-0.44922 -0.875,-0.44922 z m 0.008,11.10157 6.26562,-12.07032 1.14063,0 -6.24219,12.07032 z m 4.95312,-3.10938 q 0,-1.23437 0.61719,-2.08984 0.61719,-0.85547 1.79688,-0.85547 1.07812,0 1.78515,0.76953 0.70703,0.76953 0.70703,2.26172 0,1.45312 -0.71484,2.23828 -0.71484,0.78516 -1.76953,0.78516 -1.03906,0 -1.73047,-0.77735 -0.69141,-0.77734 -0.69141,-2.33203 z m 2.45313,-1.97656 q -0.53125,0 -0.87891,0.45312 -0.34765,0.45313 -0.34765,1.66407 0,1.09375 0.35156,1.54687 0.35156,0.45313 0.86719,0.45313 0.53906,0 0.88672,-0.45313 0.34765,-0.45312 0.34765,-1.65625 0,-1.10937 -0.35156,-1.55859 -0.35156,-0.44922 -0.875,-0.44922 z" />
        <path
           inkscape:connector-curvature="0"
           id="path4074"
           style="font-size:16px;font-variant:normal;font-stretch:normal;fill:#2a7fff;font-family:Sans;-inkscape-font-specification:Sans"
           d="m 424.34457,152.69214 0,1.35156 -7.57031,0 q -0.0156,-0.50781 0.16406,-0.97656 0.28907,-0.77344 0.92579,-1.52344 0.63671,-0.75 1.83984,-1.73437 1.86719,-1.53125 2.52344,-2.42579 0.65625,-0.89453 0.65625,-1.6914 0,-0.83594 -0.59766,-1.41016 -0.59766,-0.57422 -1.55859,-0.57422 -1.01563,0 -1.625,0.60938 -0.60938,0.60937 -0.61719,1.6875 l -1.44531,-0.14844 q 0.14843,-1.61719 1.11718,-2.46484 0.96875,-0.84766 2.60157,-0.84766 1.64843,0 2.60937,0.91406 0.96094,0.91407 0.96094,2.26563 0,0.6875 -0.28125,1.35156 -0.28125,0.66406 -0.93359,1.39844 -0.65235,0.73437 -2.16797,2.01562 -1.26563,1.0625 -1.625,1.44141 -0.35938,0.37891 -0.59375,0.76172 z" />
      </g>
      <g
         transform="translate(0,-8)"
         id="text3103-1-4"
         style="font-size:40px;font-style:normal;font-weight:normal;text-align:center;line-height:125%;letter-spacing:0px;word-spacing:0px;text-anchor:middle;fill:#2a7fff;fill-opacity:1;stroke:none;font-family:Sans">
        <path
           inkscape:connector-curvature="0"
           id="path4107"
           style="font-size:16px;font-variant:normal;font-stretch:normal;fill:#2a7fff;font-family:Sans;-inkscape-font-specification:Sans"
           d="m 269.75082,195.0437 1.47657,-0.125 q 0.16406,1.07813 0.76172,1.62109 0.59765,0.54297 1.4414,0.54297 1.01563,0 1.71875,-0.76562 0.70313,-0.76563 0.70313,-2.03125 0,-1.20313 -0.67578,-1.89844 -0.67579,-0.69531 -1.76954,-0.69531 -0.67968,0 -1.22656,0.30859 -0.54687,0.3086 -0.85937,0.80078 l -1.32032,-0.17187 1.10938,-5.88281 5.69531,0 0,1.34375 -4.57031,0 -0.61719,3.07812 q 1.03125,-0.71875 2.16406,-0.71875 1.5,0 2.53125,1.03906 1.03125,1.03907 1.03125,2.67188 0,1.55469 -0.90625,2.6875 -1.10156,1.39062 -3.00781,1.39062 -1.5625,0 -2.55078,-0.875 -0.98828,-0.875 -1.12891,-2.32031 z" />
        <path
           inkscape:connector-curvature="0"
           id="path4109"
           style="font-size:16px;font-variant:normal;font-stretch:normal;fill:#2a7fff;font-family:Sans;-inkscape-font-specification:Sans"
           d="m 278.65707,192.39526 q 0,-2.03125 0.41797,-3.26953 0.41797,-1.23828 1.24219,-1.91015 0.82422,-0.67188 2.07422,-0.67188 0.92187,0 1.61719,0.37109 0.69531,0.3711 1.14843,1.07032 0.45313,0.69922 0.71094,1.70312 0.25781,1.00391 0.25781,2.70703 0,2.01563 -0.41406,3.25391 -0.41406,1.23828 -1.23828,1.91406 -0.82422,0.67578 -2.08203,0.67578 -1.65625,0 -2.60156,-1.1875 -1.13282,-1.42968 -1.13282,-4.65625 z m 1.44532,0 q 0,2.82032 0.66015,3.75391 0.66016,0.93359 1.62891,0.93359 0.96875,0 1.62891,-0.9375 0.66015,-0.9375 0.66015,-3.75 0,-2.82812 -0.66015,-3.75781 -0.66016,-0.92969 -1.64454,-0.92969 -0.96875,0 -1.54687,0.82032 -0.72656,1.04687 -0.72656,3.86718 z" />
        <path
           inkscape:connector-curvature="0"
           id="path4111"
           style="font-size:16px;font-variant:normal;font-stretch:normal;fill:#2a7fff;font-family:Sans;-inkscape-font-specification:Sans"
           d="m 295.34457,196.19214 0,-3.14063 -3.11718,0 0,-1.3125 3.11718,0 0,-3.11718 1.32813,0 0,3.11718 3.11719,0 0,1.3125 -3.11719,0 0,3.14063 z" />
        <path
           inkscape:connector-curvature="0"
           id="path4113"
           style="font-size:16px;font-variant:normal;font-stretch:normal;fill:#2a7fff;font-family:Sans;-inkscape-font-specification:Sans"
           d="m 311.07895,198.0437 -1.40625,0 0,-8.96094 q -0.50781,0.48438 -1.33203,0.96875 -0.82422,0.48438 -1.48047,0.72657 l 0,-1.35938 q 1.17969,-0.55469 2.0625,-1.34375 0.88281,-0.78906 1.25,-1.53125 l 0.90625,0 z" />
        <path
           inkscape:connector-curvature="0"
           id="path4115"
           style="font-size:16px;font-variant:normal;font-stretch:normal;fill:#2a7fff;font-family:Sans;-inkscape-font-specification:Sans"
           d="m 314.68832,192.39526 q 0,-2.03125 0.41797,-3.26953 0.41797,-1.23828 1.24219,-1.91015 0.82422,-0.67188 2.07422,-0.67188 0.92187,0 1.61719,0.37109 0.69531,0.3711 1.14843,1.07032 0.45313,0.69922 0.71094,1.70312 0.25781,1.00391 0.25781,2.70703 0,2.01563 -0.41406,3.25391 -0.41406,1.23828 -1.23828,1.91406 -0.82422,0.67578 -2.08203,0.67578 -1.65625,0 -2.60156,-1.1875 -1.13282,-1.42968 -1.13282,-4.65625 z m 1.44532,0 q 0,2.82032 0.66015,3.75391 0.66016,0.93359 1.62891,0.93359 0.96875,0 1.62891,-0.9375 0.66015,-0.9375 0.66015,-3.75 0,-2.82812 -0.66015,-3.75781 -0.66016,-0.92969 -1.64454,-0.92969 -0.96875,0 -1.54687,0.82032 -0.72656,1.04687 -0.72656,3.86718 z" />
        <path
           inkscape:connector-curvature="0"
           id="path4117"
           style="font-size:16px;font-variant:normal;font-stretch:normal;fill:#2a7fff;font-family:Sans;-inkscape-font-specification:Sans"
           d="m 327.87582,194.6062 0,-1.41406 4.32032,0 0,1.41406 z" />
        <path
           inkscape:connector-curvature="0"
           id="path4119"
           style="font-size:16px;font-variant:normal;font-stretch:normal;fill:#2a7fff;font-family:Sans;-inkscape-font-specification:Sans"
           d="m 337.81332,195.0437 1.47657,-0.125 q 0.16406,1.07813 0.76172,1.62109 0.59765,0.54297 1.4414,0.54297 1.01563,0 1.71875,-0.76562 0.70313,-0.76563 0.70313,-2.03125 0,-1.20313 -0.67578,-1.89844 -0.67579,-0.69531 -1.76954,-0.69531 -0.67968,0 -1.22656,0.30859 -0.54687,0.3086 -0.85937,0.80078 l -1.32032,-0.17187 1.10938,-5.88281 5.69531,0 0,1.34375 -4.57031,0 -0.61719,3.07812 q 1.03125,-0.71875 2.16406,-0.71875 1.5,0 2.53125,1.03906 1.03125,1.03907 1.03125,2.67188 0,1.55469 -0.90625,2.6875 -1.10156,1.39062 -3.00781,1.39062 -1.5625,0 -2.55078,-0.875 -0.98828,-0.875 -1.12891,-2.32031 z" />
        <path
           inkscape:connector-curvature="0"
           id="path4121"
           style="font-size:16px;font-variant:normal;font-stretch:normal;fill:#2a7fff;font-family:Sans;-inkscape-font-specification:Sans"
           d="m 354.50082,196.19214 0,-3.14063 -3.11718,0 0,-1.3125 3.11718,0 0,-3.11718 1.32813,0 0,3.11718 3.11719,0 0,1.3125 -3.11719,0 0,3.14063 z" />
        <path
           inkscape:connector-curvature="0"
           id="path4123"
           style="font-size:16px;font-variant:normal;font-stretch:normal;fill:#ffffff;font-family:Sans;-inkscape-font-specification:Sans"
           d="m 365.03207,188.09058 0,-1.35157 7.41407,0 0,1.09375 q -1.09375,1.16407 -2.16797,3.09375 -1.07422,1.92969 -1.66016,3.96875 -0.42187,1.4375 -0.53906,3.14844 l -1.44531,0 q 0.0234,-1.35156 0.53125,-3.26562 0.50781,-1.91407 1.45703,-3.69141 0.94922,-1.77734 2.01953,-2.99609 z" />
        <path
           inkscape:connector-curvature="0"
           id="path4125"
           style="font-size:16px;font-variant:normal;font-stretch:normal;fill:#ffffff;font-family:Sans;-inkscape-font-specification:Sans"
           d="m 378.5477,189.34058 q 0,-1.22657 0.61719,-2.08594 0.61718,-0.85938 1.78906,-0.85938 1.07812,0 1.78516,0.76953 0.70703,0.76954 0.70703,2.26172 0,1.45313 -0.71485,2.23828 -0.71484,0.78516 -1.76172,0.78516 -1.03906,0 -1.73046,-0.77344 -0.69141,-0.77343 -0.69141,-2.33593 z m 2.44531,-1.97657 q -0.52344,0 -0.87109,0.45313 -0.34766,0.45312 -0.34766,1.66406 0,1.10156 0.35156,1.55078 0.35157,0.44922 0.86719,0.44922 0.53125,0 0.87891,-0.45312 0.34765,-0.45313 0.34765,-1.65625 0,-1.10938 -0.35156,-1.5586 -0.35156,-0.44922 -0.875,-0.44922 z m 0.008,11.10157 6.26563,-12.07032 1.14062,0 -6.24218,12.07032 z m 4.95313,-3.10938 q 0,-1.23437 0.61719,-2.08984 0.61718,-0.85547 1.79687,-0.85547 1.07813,0 1.78516,0.76953 0.70703,0.76953 0.70703,2.26172 0,1.45312 -0.71484,2.23828 -0.71485,0.78516 -1.76954,0.78516 -1.03906,0 -1.73046,-0.77735 -0.69141,-0.77734 -0.69141,-2.33203 z m 2.45312,-1.97656 q -0.53125,0 -0.8789,0.45312 -0.34766,0.45313 -0.34766,1.66407 0,1.09375 0.35156,1.54687 0.35157,0.45313 0.86719,0.45313 0.53906,0 0.88672,-0.45313 0.34766,-0.45312 0.34766,-1.65625 0,-1.10937 -0.35157,-1.55859 -0.35156,-0.44922 -0.875,-0.44922 z" />
        <path
           inkscape:connector-curvature="0"
           id="path4127"
           style="font-size:16px;font-variant:normal;font-stretch:normal;fill:#ffffff;font-family:Sans;-inkscape-font-specification:Sans"
           d="m 404.32895,196.69214 0,1.35156 -7.57031,0 q -0.0156,-0.50781 0.16406,-0.97656 0.28906,-0.77344 0.92578,-1.52344 0.63672,-0.75 1.83984,-1.73437 1.86719,-1.53125 2.52344,-2.42579 0.65625,-0.89453 0.65625,-1.6914 0,-0.83594 -0.59765,-1.41016 -0.59766,-0.57422 -1.5586,-0.57422 -1.01562,0 -1.625,0.60938 -0.60937,0.60937 -0.61719,1.6875 l -1.44531,-0.14844 q 0.14844,-1.61719 1.11719,-2.46484 0.96875,-0.84766 2.60156,-0.84766 1.64844,0 2.60938,0.91406 0.96093,0.91407 0.96093,2.26563 0,0.6875 -0.28125,1.35156 -0.28125,0.66406 -0.93359,1.39844 -0.65234,0.73437 -2.16797,2.01562 -1.26562,1.0625 -1.625,1.44141 -0.35937,0.37891 -0.59375,0.76172 z" />
      </g>
      <g
         transform="translate(-2,-12)"
         id="text3103-1-4-9"
         style="font-size:40px;font-style:normal;font-weight:normal;text-align:center;line-height:125%;letter-spacing:0px;word-spacing:0px;text-anchor:middle;fill:#2a7fff;fill-opacity:1;stroke:none;font-family:Sans">
        <path
           inkscape:connector-curvature="0"
           id="path4151"
           style="font-size:16px;font-variant:normal;font-stretch:normal;fill:#ffffff;font-family:Sans;-inkscape-font-specification:Sans"
           d="m 287.75082,241.0437 1.47657,-0.125 q 0.16406,1.07813 0.76172,1.62109 0.59765,0.54297 1.4414,0.54297 1.01563,0 1.71875,-0.76562 0.70313,-0.76563 0.70313,-2.03125 0,-1.20313 -0.67578,-1.89844 -0.67579,-0.69531 -1.76954,-0.69531 -0.67968,0 -1.22656,0.30859 -0.54687,0.3086 -0.85937,0.80078 l -1.32032,-0.17187 1.10938,-5.88281 5.69531,0 0,1.34375 -4.57031,0 -0.61719,3.07812 q 1.03125,-0.71875 2.16406,-0.71875 1.5,0 2.53125,1.03906 1.03125,1.03907 1.03125,2.67188 0,1.55469 -0.90625,2.6875 -1.10156,1.39062 -3.00781,1.39062 -1.5625,0 -2.55078,-0.875 -0.98828,-0.875 -1.12891,-2.32031 z" />
        <path
           inkscape:connector-curvature="0"
           id="path4153"
           style="font-size:16px;font-variant:normal;font-stretch:normal;fill:#ffffff;font-family:Sans;-inkscape-font-specification:Sans"
           d="m 296.65707,238.39526 q 0,-2.03125 0.41797,-3.26953 0.41797,-1.23828 1.24219,-1.91015 0.82422,-0.67188 2.07422,-0.67188 0.92187,0 1.61719,0.37109 0.69531,0.3711 1.14843,1.07032 0.45313,0.69922 0.71094,1.70312 0.25781,1.00391 0.25781,2.70703 0,2.01563 -0.41406,3.25391 -0.41406,1.23828 -1.23828,1.91406 -0.82422,0.67578 -2.08203,0.67578 -1.65625,0 -2.60156,-1.1875 -1.13282,-1.42968 -1.13282,-4.65625 z m 1.44532,0 q 0,2.82032 0.66015,3.75391 0.66016,0.93359 1.62891,0.93359 0.96875,0 1.62891,-0.9375 0.66015,-0.9375 0.66015,-3.75 0,-2.82812 -0.66015,-3.75781 -0.66016,-0.92969 -1.64454,-0.92969 -0.96875,0 -1.54687,0.82032 -0.72656,1.04687 -0.72656,3.86718 z" />
        <path
           inkscape:connector-curvature="0"
           id="path4155"
           style="font-size:16px;font-variant:normal;font-stretch:normal;fill:#ffffff;font-family:Sans;-inkscape-font-specification:Sans"
           d="m 313.34457,242.19214 0,-3.14063 -3.11718,0 0,-1.3125 3.11718,0 0,-3.11718 1.32813,0 0,3.11718 3.11719,0 0,1.3125 -3.11719,0 0,3.14063 z" />
        <path
           inkscape:connector-curvature="0"
           id="path4157"
           style="font-size:16px;font-variant:normal;font-stretch:normal;fill:#ffffff;font-family:Sans;-inkscape-font-specification:Sans"
           d="m 329.07895,244.0437 -1.40625,0 0,-8.96094 q -0.50781,0.48438 -1.33203,0.96875 -0.82422,0.48438 -1.48047,0.72657 l 0,-1.35938 q 1.17969,-0.55469 2.0625,-1.34375 0.88281,-0.78906 1.25,-1.53125 l 0.90625,0 z" />
        <path
           inkscape:connector-curvature="0"
           id="path4159"
           style="font-size:16px;font-variant:normal;font-stretch:normal;fill:#ffffff;font-family:Sans;-inkscape-font-specification:Sans"
           d="m 332.68832,238.39526 q 0,-2.03125 0.41797,-3.26953 0.41797,-1.23828 1.24219,-1.91015 0.82422,-0.67188 2.07422,-0.67188 0.92187,0 1.61719,0.37109 0.69531,0.3711 1.14843,1.07032 0.45313,0.69922 0.71094,1.70312 0.25781,1.00391 0.25781,2.70703 0,2.01563 -0.41406,3.25391 -0.41406,1.23828 -1.23828,1.91406 -0.82422,0.67578 -2.08203,0.67578 -1.65625,0 -2.60156,-1.1875 -1.13282,-1.42968 -1.13282,-4.65625 z m 1.44532,0 q 0,2.82032 0.66015,3.75391 0.66016,0.93359 1.62891,0.93359 0.96875,0 1.62891,-0.9375 0.66015,-0.9375 0.66015,-3.75 0,-2.82812 -0.66015,-3.75781 -0.66016,-0.92969 -1.64454,-0.92969 -0.96875,0 -1.54687,0.82032 -0.72656,1.04687 -0.72656,3.86718 z" />
        <path
           inkscape:connector-curvature="0"
           id="path4161"
           style="font-size:16px;font-variant:normal;font-stretch:normal;fill:#2a7fff;font-family:Sans;-inkscape-font-specification:Sans"
           d="m 345.87582,240.6062 0,-1.41406 4.32032,0 0,1.41406 z" />
        <path
           inkscape:connector-curvature="0"
           id="path4163"
           style="font-size:16px;font-variant:normal;font-stretch:normal;fill:#2a7fff;font-family:Sans;-inkscape-font-specification:Sans"
           d="m 355.81332,241.0437 1.47657,-0.125 q 0.16406,1.07813 0.76172,1.62109 0.59765,0.54297 1.4414,0.54297 1.01563,0 1.71875,-0.76562 0.70313,-0.76563 0.70313,-2.03125 0,-1.20313 -0.67578,-1.89844 -0.67579,-0.69531 -1.76954,-0.69531 -0.67968,0 -1.22656,0.30859 -0.54687,0.3086 -0.85937,0.80078 l -1.32032,-0.17187 1.10938,-5.88281 5.69531,0 0,1.34375 -4.57031,0 -0.61719,3.07812 q 1.03125,-0.71875 2.16406,-0.71875 1.5,0 2.53125,1.03906 1.03125,1.03907 1.03125,2.67188 0,1.55469 -0.90625,2.6875 -1.10156,1.39062 -3.00781,1.39062 -1.5625,0 -2.55078,-0.875 -0.98828,-0.875 -1.12891,-2.32031 z" />
        <path
           inkscape:connector-curvature="0"
           id="path4165"
           style="font-size:16px;font-variant:normal;font-stretch:normal;fill:#2a7fff;font-family:Sans;-inkscape-font-specification:Sans"
           d="m 372.50082,242.19214 0,-3.14063 -3.11718,0 0,-1.3125 3.11718,0 0,-3.11718 1.32813,0 0,3.11718 3.11719,0 0,1.3125 -3.11719,0 0,3.14063 z" />
        <path
           inkscape:connector-curvature="0"
           id="path4167"
           style="font-size:16px;font-variant:normal;font-stretch:normal;fill:#2a7fff;font-family:Sans;-inkscape-font-specification:Sans"
           d="m 388.2352,244.0437 -1.40625,0 0,-8.96094 q -0.50781,0.48438 -1.33203,0.96875 -0.82422,0.48438 -1.48047,0.72657 l 0,-1.35938 q 1.17969,-0.55469 2.0625,-1.34375 0.88281,-0.78906 1.25,-1.53125 l 0.90625,0 z" />
      </g>
      <g
         transform="translate(0,-26)"
         id="text3103-1-4-9-8"
         style="font-size:40px;font-style:normal;font-weight:normal;text-align:center;line-height:125%;letter-spacing:0px;word-spacing:0px;text-anchor:middle;fill:#2a7fff;fill-opacity:1;stroke:none;font-family:Sans">
        <path
           inkscape:connector-curvature="0"
           id="path4184"
           style="font-size:16px;font-variant:normal;font-stretch:normal;fill:#ffffff;font-family:Sans;-inkscape-font-specification:Sans"
           d="m 311.06332,291.39526 -1.39843,0.10938 q -0.1875,-0.82813 -0.53125,-1.20313 -0.57032,-0.60156 -1.40625,-0.60156 -0.67188,0 -1.17969,0.375 -0.66406,0.48438 -1.04688,1.41406 -0.38281,0.92969 -0.39843,2.64844 0.50781,-0.77344 1.24218,-1.14844 0.73438,-0.375 1.53907,-0.375 1.40625,0 2.39453,1.03516 0.98828,1.03516 0.98828,2.67578 0,1.07813 -0.46484,2.00391 -0.46485,0.92578 -1.27735,1.41797 -0.8125,0.49218 -1.84375,0.49218 -1.75781,0 -2.86719,-1.29297 -1.10937,-1.29296 -1.10937,-4.26171 0,-3.32032 1.22656,-4.82813 1.07031,-1.3125 2.88281,-1.3125 1.35157,0 2.21485,0.75781 0.86328,0.75782 1.03515,2.09375 z m -5.74218,4.9375 q 0,0.72657 0.30859,1.39063 0.30859,0.66406 0.86328,1.01172 0.55469,0.34765 1.16406,0.34765 0.89063,0 1.53125,-0.71875 0.64063,-0.71875 0.64063,-1.95312 0,-1.1875 -0.63281,-1.8711 -0.63282,-0.68359 -1.59375,-0.68359 -0.95313,0 -1.61719,0.68359 -0.66406,0.6836 -0.66406,1.79297 z" />
        <path
           inkscape:connector-curvature="0"
           id="path4186"
           style="font-size:16px;font-variant:normal;font-stretch:normal;fill:#ffffff;font-family:Sans;-inkscape-font-specification:Sans"
           d="m 312.6727,294.39526 q 0,-2.03125 0.41797,-3.26953 0.41797,-1.23828 1.24219,-1.91015 0.82421,-0.67188 2.07421,-0.67188 0.92188,0 1.61719,0.37109 0.69531,0.3711 1.14844,1.07032 0.45312,0.69922 0.71094,1.70312 0.25781,1.00391 0.25781,2.70703 0,2.01563 -0.41406,3.25391 -0.41407,1.23828 -1.23828,1.91406 -0.82422,0.67578 -2.08204,0.67578 -1.65625,0 -2.60156,-1.1875 -1.13281,-1.42968 -1.13281,-4.65625 z m 1.44531,0 q 0,2.82032 0.66016,3.75391 0.66015,0.93359 1.6289,0.93359 0.96875,0 1.62891,-0.9375 0.66016,-0.9375 0.66016,-3.75 0,-2.82812 -0.66016,-3.75781 -0.66016,-0.92969 -1.64453,-0.92969 -0.96875,0 -1.54688,0.82032 -0.72656,1.04687 -0.72656,3.86718 z" />
        <path
           inkscape:connector-curvature="0"
           id="path4188"
           style="font-size:16px;font-variant:normal;font-stretch:normal;fill:#ffffff;font-family:Sans;-inkscape-font-specification:Sans"
           d="m 325.8602,296.6062 0,-1.41406 4.32031,0 0,1.41406 z" />
        <path
           inkscape:connector-curvature="0"
           id="path4190"
           style="font-size:16px;font-variant:normal;font-stretch:normal;fill:#ffffff;font-family:Sans;-inkscape-font-specification:Sans"
           d="m 335.7977,297.0437 1.47656,-0.125 q 0.16406,1.07813 0.76172,1.62109 0.59766,0.54297 1.44141,0.54297 1.01562,0 1.71875,-0.76562 0.70312,-0.76563 0.70312,-2.03125 0,-1.20313 -0.67578,-1.89844 -0.67578,-0.69531 -1.76953,-0.69531 -0.67969,0 -1.22656,0.30859 -0.54688,0.3086 -0.85938,0.80078 l -1.32031,-0.17187 1.10937,-5.88281 5.69532,0 0,1.34375 -4.57032,0 -0.61718,3.07812 q 1.03125,-0.71875 2.16406,-0.71875 1.5,0 2.53125,1.03906 1.03125,1.03907 1.03125,2.67188 0,1.55469 -0.90625,2.6875 -1.10156,1.39062 -3.00781,1.39062 -1.5625,0 -2.55078,-0.875 -0.98829,-0.875 -1.12891,-2.32031 z" />
        <path
           inkscape:connector-curvature="0"
           id="path4192"
           style="font-size:16px;font-variant:normal;font-stretch:normal;fill:#2a7fff;font-family:Sans;-inkscape-font-specification:Sans"
           d="m 352.4852,298.19214 0,-3.14063 -3.11719,0 0,-1.3125 3.11719,0 0,-3.11718 1.32812,0 0,3.11718 3.11719,0 0,1.3125 -3.11719,0 0,3.14063 z" />
        <path
           inkscape:connector-curvature="0"
           id="path4194"
           style="font-size:16px;font-variant:normal;font-stretch:normal;fill:#2a7fff;font-family:Sans;-inkscape-font-specification:Sans"
           d="m 368.21957,300.0437 -1.40625,0 0,-8.96094 q -0.50781,0.48438 -1.33203,0.96875 -0.82422,0.48438 -1.48047,0.72657 l 0,-1.35938 q 1.17969,-0.55469 2.0625,-1.34375 0.88282,-0.78906 1.25,-1.53125 l 0.90625,0 z" />
      </g>
      <g
         transform="translate(0,-34)"
         id="text3103-1-4-9-8-2"
         style="font-size:40px;font-style:normal;font-weight:normal;text-align:center;line-height:125%;letter-spacing:0px;word-spacing:0px;text-anchor:middle;fill:#2a7fff;fill-opacity:1;stroke:none;font-family:Sans">
        <path
           inkscape:connector-curvature="0"
           id="path4175"
           style="font-size:16px;font-variant:normal;font-stretch:normal;fill:#2a7fff;font-family:Sans;-inkscape-font-specification:Sans"
           d="m 315.32895,347.0437 1.47656,-0.125 q 0.16406,1.07813 0.76172,1.62109 0.59766,0.54297 1.44141,0.54297 1.01562,0 1.71875,-0.76562 0.70312,-0.76563 0.70312,-2.03125 0,-1.20313 -0.67578,-1.89844 -0.67578,-0.69531 -1.76953,-0.69531 -0.67969,0 -1.22656,0.30859 -0.54688,0.3086 -0.85938,0.80078 l -1.32031,-0.17187 1.10937,-5.88281 5.69532,0 0,1.34375 -4.57032,0 -0.61718,3.07812 q 1.03125,-0.71875 2.16406,-0.71875 1.5,0 2.53125,1.03906 1.03125,1.03907 1.03125,2.67188 0,1.55469 -0.90625,2.6875 -1.10156,1.39062 -3.00781,1.39062 -1.5625,0 -2.55078,-0.875 -0.98829,-0.875 -1.12891,-2.32031 z" />
        <path
           inkscape:connector-curvature="0"
           id="path4177"
           style="font-size:16px;font-variant:normal;font-stretch:normal;fill:#2a7fff;font-family:Sans;-inkscape-font-specification:Sans"
           d="m 324.2352,347.0437 1.47656,-0.125 q 0.16406,1.07813 0.76172,1.62109 0.59766,0.54297 1.44141,0.54297 1.01562,0 1.71875,-0.76562 0.70312,-0.76563 0.70312,-2.03125 0,-1.20313 -0.67578,-1.89844 -0.67578,-0.69531 -1.76953,-0.69531 -0.67969,0 -1.22656,0.30859 -0.54688,0.3086 -0.85938,0.80078 l -1.32031,-0.17187 1.10937,-5.88281 5.69532,0 0,1.34375 -4.57032,0 -0.61718,3.07812 q 1.03125,-0.71875 2.16406,-0.71875 1.5,0 2.53125,1.03906 1.03125,1.03907 1.03125,2.67188 0,1.55469 -0.90625,2.6875 -1.10156,1.39062 -3.00781,1.39062 -1.5625,0 -2.55078,-0.875 -0.98829,-0.875 -1.12891,-2.32031 z" />
        <path
           inkscape:connector-curvature="0"
           id="path4179"
           style="font-size:16px;font-variant:normal;font-stretch:normal;fill:#2a7fff;font-family:Sans;-inkscape-font-specification:Sans"
           d="m 340.9227,348.19214 0,-3.14063 -3.11719,0 0,-1.3125 3.11719,0 0,-3.11718 1.32812,0 0,3.11718 3.11719,0 0,1.3125 -3.11719,0 0,3.14063 z" />
        <path
           inkscape:connector-curvature="0"
           id="path4181"
           style="font-size:16px;font-variant:normal;font-stretch:normal;fill:#2a7fff;font-family:Sans;-inkscape-font-specification:Sans"
           d="m 356.65707,350.0437 -1.40625,0 0,-8.96094 q -0.50781,0.48438 -1.33203,0.96875 -0.82422,0.48438 -1.48047,0.72657 l 0,-1.35938 q 1.17969,-0.55469 2.0625,-1.34375 0.88282,-0.78906 1.25,-1.53125 l 0.90625,0 z" />
      </g>
      <g
         transform="translate(0,-48.918083)"
         id="text3103-1-4-9-8-2-5"
         style="font-size:40px;font-style:normal;font-weight:normal;text-align:center;line-height:125%;letter-spacing:0px;word-spacing:0px;text-anchor:middle;fill:#ffffff;fill-opacity:1;stroke:none;font-family:Sans">
        <path
           inkscape:connector-curvature="0"
           id="path4170"
           style="font-size:16px;font-variant:normal;font-stretch:normal;fill:#ffffff;font-family:Sans;-inkscape-font-specification:Sans"
           d="m 328.89145,393.0437 1.47656,-0.125 q 0.16406,1.07813 0.76172,1.62109 0.59766,0.54297 1.44141,0.54297 1.01562,0 1.71875,-0.76562 0.70312,-0.76563 0.70312,-2.03125 0,-1.20313 -0.67578,-1.89844 -0.67578,-0.69531 -1.76953,-0.69531 -0.67969,0 -1.22656,0.30859 -0.54688,0.3086 -0.85938,0.80078 l -1.32031,-0.17187 1.10937,-5.88281 5.69532,0 0,1.34375 -4.57032,0 -0.61718,3.07812 q 1.03125,-0.71875 2.16406,-0.71875 1.5,0 2.53125,1.03906 1.03125,1.03907 1.03125,2.67188 0,1.55469 -0.90625,2.6875 -1.10156,1.39062 -3.00781,1.39062 -1.5625,0 -2.55078,-0.875 -0.98829,-0.875 -1.12891,-2.32031 z" />
        <path
           inkscape:connector-curvature="0"
           id="path4172"
           style="font-size:16px;font-variant:normal;font-stretch:normal;fill:#ffffff;font-family:Sans;-inkscape-font-specification:Sans"
           d="m 345.09457,387.39526 -1.39843,0.10938 q -0.1875,-0.82813 -0.53125,-1.20313 -0.57032,-0.60156 -1.40625,-0.60156 -0.67188,0 -1.17969,0.375 -0.66406,0.48438 -1.04688,1.41406 -0.38281,0.92969 -0.39843,2.64844 0.50781,-0.77344 1.24218,-1.14844 0.73438,-0.375 1.53907,-0.375 1.40625,0 2.39453,1.03516 0.98828,1.03516 0.98828,2.67578 0,1.07813 -0.46484,2.00391 -0.46485,0.92578 -1.27735,1.41797 -0.8125,0.49218 -1.84375,0.49218 -1.75781,0 -2.86719,-1.29297 -1.10937,-1.29296 -1.10937,-4.26171 0,-3.32032 1.22656,-4.82813 1.07031,-1.3125 2.88281,-1.3125 1.35157,0 2.21485,0.75781 0.86328,0.75782 1.03515,2.09375 z m -5.74218,4.9375 q 0,0.72657 0.30859,1.39063 0.30859,0.66406 0.86328,1.01172 0.55469,0.34765 1.16406,0.34765 0.89063,0 1.53125,-0.71875 0.64063,-0.71875 0.64063,-1.95312 0,-1.1875 -0.63281,-1.8711 -0.63282,-0.68359 -1.59375,-0.68359 -0.95313,0 -1.61719,0.68359 -0.66406,0.6836 -0.66406,1.79297 z" />
      </g>
      <path
         sodipodi:nodetypes="cccc"
         inkscape:connector-curvature="0"
         id="rect4040"
         d="m 252.65401,114.95615 10.74277,0 -5.17245,13.01599 z"
         style="fill:#2a7fff;fill-opacity:1" />
      <path
         sodipodi:nodetypes="cccc"
         inkscape:connector-curvature="0"
         id="rect4040-2-4"
         d="m 319.28839,277.9917 10.74277,0 -5.17245,13.60401 z"
         style="fill:#2a7fff;fill-opacity:1" />
    </g>
  </g>
</svg>
